<mxfile host="app.diagrams.net" agent="Mozilla/5.0 (Windows NT 10.0; Win64; x64) AppleWebKit/537.36 (KHTML, like Gecko) Chrome/131.0.0.0 Safari/537.36" version="24.8.9">
  <diagram name="Page-1" id="dl5wnc922L9KXSFXQeXN">
    <mxGraphModel dx="683" dy="355" grid="1" gridSize="10" guides="1" tooltips="1" connect="1" arrows="1" fold="1" page="1" pageScale="1" pageWidth="850" pageHeight="1100" math="0" shadow="0">
      <root>
        <mxCell id="0" />
        <mxCell id="1" parent="0" />
        <mxCell id="iU5Yc8XOJH75U9EFFGN1-1" value="grayscale_i" style="text;html=1;align=center;verticalAlign=middle;whiteSpace=wrap;rounded=0;" parent="1" vertex="1">
          <mxGeometry x="260" y="930" width="60" height="30" as="geometry" />
        </mxCell>
        <mxCell id="iU5Yc8XOJH75U9EFFGN1-2" value="Line_buffer" style="rounded=0;whiteSpace=wrap;html=1;" parent="1" vertex="1">
          <mxGeometry x="240" y="1000" width="160" height="40" as="geometry" />
        </mxCell>
        <mxCell id="iU5Yc8XOJH75U9EFFGN1-3" value="Line_buffer" style="rounded=0;whiteSpace=wrap;html=1;" parent="1" vertex="1">
          <mxGeometry x="240" y="1060" width="160" height="40" as="geometry" />
        </mxCell>
        <mxCell id="iU5Yc8XOJH75U9EFFGN1-4" value="Line_buffer" style="rounded=0;whiteSpace=wrap;html=1;" parent="1" vertex="1">
          <mxGeometry x="240" y="1120" width="160" height="40" as="geometry" />
        </mxCell>
        <mxCell id="iU5Yc8XOJH75U9EFFGN1-5" value="Line_buffer" style="rounded=0;whiteSpace=wrap;html=1;" parent="1" vertex="1">
          <mxGeometry x="240" y="1180" width="160" height="40" as="geometry" />
        </mxCell>
        <mxCell id="iU5Yc8XOJH75U9EFFGN1-6" value="Line_buffer" style="rounded=0;whiteSpace=wrap;html=1;" parent="1" vertex="1">
          <mxGeometry x="240" y="1240" width="160" height="40" as="geometry" />
        </mxCell>
        <mxCell id="iU5Yc8XOJH75U9EFFGN1-7" value="Line_buffer" style="rounded=0;whiteSpace=wrap;html=1;" parent="1" vertex="1">
          <mxGeometry x="240" y="1300" width="160" height="40" as="geometry" />
        </mxCell>
        <mxCell id="iU5Yc8XOJH75U9EFFGN1-8" value="Line_buffer" style="rounded=0;whiteSpace=wrap;html=1;" parent="1" vertex="1">
          <mxGeometry x="240" y="1360" width="160" height="40" as="geometry" />
        </mxCell>
        <mxCell id="iU5Yc8XOJH75U9EFFGN1-9" value="Line_buffer" style="rounded=0;whiteSpace=wrap;html=1;" parent="1" vertex="1">
          <mxGeometry x="240" y="1420" width="160" height="40" as="geometry" />
        </mxCell>
        <mxCell id="iU5Yc8XOJH75U9EFFGN1-10" value="" style="endArrow=classic;html=1;rounded=0;entryX=0;entryY=0.5;entryDx=0;entryDy=0;" parent="1" target="iU5Yc8XOJH75U9EFFGN1-2" edge="1">
          <mxGeometry width="50" height="50" relative="1" as="geometry">
            <mxPoint x="160" y="960" as="sourcePoint" />
            <mxPoint x="220" y="990" as="targetPoint" />
            <Array as="points">
              <mxPoint x="160" y="1020" />
            </Array>
          </mxGeometry>
        </mxCell>
        <mxCell id="iU5Yc8XOJH75U9EFFGN1-11" value="" style="endArrow=classic;html=1;rounded=0;exitX=1;exitY=0.5;exitDx=0;exitDy=0;entryX=0;entryY=0.5;entryDx=0;entryDy=0;" parent="1" source="iU5Yc8XOJH75U9EFFGN1-2" target="iU5Yc8XOJH75U9EFFGN1-3" edge="1">
          <mxGeometry width="50" height="50" relative="1" as="geometry">
            <mxPoint x="400" y="1060" as="sourcePoint" />
            <mxPoint x="450" y="1010" as="targetPoint" />
            <Array as="points">
              <mxPoint x="440" y="1020" />
              <mxPoint x="440" y="1050" />
              <mxPoint x="200" y="1050" />
              <mxPoint x="200" y="1080" />
            </Array>
          </mxGeometry>
        </mxCell>
        <mxCell id="iU5Yc8XOJH75U9EFFGN1-12" value="" style="endArrow=classic;html=1;rounded=0;exitX=1;exitY=0.5;exitDx=0;exitDy=0;entryX=0;entryY=0.5;entryDx=0;entryDy=0;" parent="1" source="iU5Yc8XOJH75U9EFFGN1-3" target="iU5Yc8XOJH75U9EFFGN1-4" edge="1">
          <mxGeometry width="50" height="50" relative="1" as="geometry">
            <mxPoint x="400" y="1130" as="sourcePoint" />
            <mxPoint x="450" y="1080" as="targetPoint" />
            <Array as="points">
              <mxPoint x="440" y="1080" />
              <mxPoint x="440" y="1110" />
              <mxPoint x="200" y="1110" />
              <mxPoint x="200" y="1140" />
            </Array>
          </mxGeometry>
        </mxCell>
        <mxCell id="iU5Yc8XOJH75U9EFFGN1-13" value="" style="endArrow=classic;html=1;rounded=0;exitX=1;exitY=0.5;exitDx=0;exitDy=0;entryX=0;entryY=0.5;entryDx=0;entryDy=0;" parent="1" edge="1">
          <mxGeometry width="50" height="50" relative="1" as="geometry">
            <mxPoint x="400" y="1140" as="sourcePoint" />
            <mxPoint x="240" y="1200" as="targetPoint" />
            <Array as="points">
              <mxPoint x="440" y="1140" />
              <mxPoint x="440" y="1170" />
              <mxPoint x="200" y="1170" />
              <mxPoint x="200" y="1200" />
            </Array>
          </mxGeometry>
        </mxCell>
        <mxCell id="iU5Yc8XOJH75U9EFFGN1-14" value="" style="endArrow=classic;html=1;rounded=0;exitX=1;exitY=0.5;exitDx=0;exitDy=0;entryX=0;entryY=0.5;entryDx=0;entryDy=0;" parent="1" edge="1">
          <mxGeometry width="50" height="50" relative="1" as="geometry">
            <mxPoint x="400" y="1200" as="sourcePoint" />
            <mxPoint x="240" y="1260" as="targetPoint" />
            <Array as="points">
              <mxPoint x="440" y="1200" />
              <mxPoint x="440" y="1230" />
              <mxPoint x="200" y="1230" />
              <mxPoint x="200" y="1260" />
            </Array>
          </mxGeometry>
        </mxCell>
        <mxCell id="iU5Yc8XOJH75U9EFFGN1-15" value="" style="endArrow=classic;html=1;rounded=0;exitX=1;exitY=0.5;exitDx=0;exitDy=0;entryX=0;entryY=0.5;entryDx=0;entryDy=0;" parent="1" edge="1">
          <mxGeometry width="50" height="50" relative="1" as="geometry">
            <mxPoint x="400" y="1260" as="sourcePoint" />
            <mxPoint x="240" y="1320" as="targetPoint" />
            <Array as="points">
              <mxPoint x="440" y="1260" />
              <mxPoint x="440" y="1290" />
              <mxPoint x="200" y="1290" />
              <mxPoint x="200" y="1320" />
            </Array>
          </mxGeometry>
        </mxCell>
        <mxCell id="iU5Yc8XOJH75U9EFFGN1-16" value="" style="endArrow=classic;html=1;rounded=0;exitX=1;exitY=0.5;exitDx=0;exitDy=0;entryX=0;entryY=0.5;entryDx=0;entryDy=0;" parent="1" edge="1">
          <mxGeometry width="50" height="50" relative="1" as="geometry">
            <mxPoint x="400" y="1320" as="sourcePoint" />
            <mxPoint x="240" y="1380" as="targetPoint" />
            <Array as="points">
              <mxPoint x="440" y="1320" />
              <mxPoint x="440" y="1350" />
              <mxPoint x="200" y="1350" />
              <mxPoint x="200" y="1380" />
            </Array>
          </mxGeometry>
        </mxCell>
        <mxCell id="iU5Yc8XOJH75U9EFFGN1-17" value="" style="endArrow=classic;html=1;rounded=0;exitX=1;exitY=0.5;exitDx=0;exitDy=0;entryX=0;entryY=0.5;entryDx=0;entryDy=0;" parent="1" edge="1">
          <mxGeometry width="50" height="50" relative="1" as="geometry">
            <mxPoint x="400" y="1380" as="sourcePoint" />
            <mxPoint x="240" y="1440" as="targetPoint" />
            <Array as="points">
              <mxPoint x="440" y="1380" />
              <mxPoint x="440" y="1410" />
              <mxPoint x="200" y="1410" />
              <mxPoint x="200" y="1440" />
            </Array>
          </mxGeometry>
        </mxCell>
        <mxCell id="iU5Yc8XOJH75U9EFFGN1-19" value="3x3 median filtering" style="rounded=1;whiteSpace=wrap;html=1;" parent="1" vertex="1">
          <mxGeometry x="720" y="990" width="330" height="60" as="geometry" />
        </mxCell>
        <mxCell id="iU5Yc8XOJH75U9EFFGN1-20" value="5x5 median filtering" style="rounded=1;whiteSpace=wrap;html=1;fillColor=#fff2cc;strokeColor=#d6b656;" parent="1" vertex="1">
          <mxGeometry x="720" y="1170" width="330" height="60" as="geometry" />
        </mxCell>
        <mxCell id="iU5Yc8XOJH75U9EFFGN1-21" value="7x7 median filtering" style="rounded=1;whiteSpace=wrap;html=1;fillColor=#dae8fc;strokeColor=#6c8ebf;" parent="1" vertex="1">
          <mxGeometry x="720" y="1290" width="330" height="60" as="geometry" />
        </mxCell>
        <mxCell id="iU5Yc8XOJH75U9EFFGN1-22" value="9x9 median filtering" style="rounded=1;whiteSpace=wrap;html=1;fillColor=#d5e8d4;strokeColor=#82b366;" parent="1" vertex="1">
          <mxGeometry x="720" y="1410" width="330" height="60" as="geometry" />
        </mxCell>
        <mxCell id="iU5Yc8XOJH75U9EFFGN1-25" value="" style="endArrow=none;html=1;rounded=0;entryX=0;entryY=0.5;entryDx=0;entryDy=0;exitX=1;exitY=0.5;exitDx=0;exitDy=0;fillColor=#f8cecc;strokeColor=#39B85B;" parent="1" source="iU5Yc8XOJH75U9EFFGN1-9" target="iU5Yc8XOJH75U9EFFGN1-22" edge="1">
          <mxGeometry width="50" height="50" relative="1" as="geometry">
            <mxPoint x="520" y="1380" as="sourcePoint" />
            <mxPoint x="570" y="1330" as="targetPoint" />
          </mxGeometry>
        </mxCell>
        <mxCell id="iU5Yc8XOJH75U9EFFGN1-27" value="" style="endArrow=none;html=1;rounded=0;entryX=1;entryY=0.5;entryDx=0;entryDy=0;fillColor=#f8cecc;strokeColor=#39B85B;" parent="1" target="iU5Yc8XOJH75U9EFFGN1-8" edge="1">
          <mxGeometry width="50" height="50" relative="1" as="geometry">
            <mxPoint x="560" y="1440" as="sourcePoint" />
            <mxPoint x="610" y="1330" as="targetPoint" />
            <Array as="points">
              <mxPoint x="560" y="1380" />
            </Array>
          </mxGeometry>
        </mxCell>
        <mxCell id="iU5Yc8XOJH75U9EFFGN1-28" value="" style="endArrow=none;html=1;rounded=0;entryX=1;entryY=0.5;entryDx=0;entryDy=0;fillColor=#f8cecc;strokeColor=#39B85B;" parent="1" target="iU5Yc8XOJH75U9EFFGN1-7" edge="1">
          <mxGeometry width="50" height="50" relative="1" as="geometry">
            <mxPoint x="560" y="1440" as="sourcePoint" />
            <mxPoint x="400" y="1380" as="targetPoint" />
            <Array as="points">
              <mxPoint x="560" y="1320" />
            </Array>
          </mxGeometry>
        </mxCell>
        <mxCell id="iU5Yc8XOJH75U9EFFGN1-29" value="" style="endArrow=none;html=1;rounded=0;entryX=1;entryY=0.5;entryDx=0;entryDy=0;fillColor=#f8cecc;strokeColor=#39B85B;" parent="1" target="iU5Yc8XOJH75U9EFFGN1-6" edge="1">
          <mxGeometry width="50" height="50" relative="1" as="geometry">
            <mxPoint x="560" y="1440" as="sourcePoint" />
            <mxPoint x="400" y="1320" as="targetPoint" />
            <Array as="points">
              <mxPoint x="560" y="1260" />
            </Array>
          </mxGeometry>
        </mxCell>
        <mxCell id="iU5Yc8XOJH75U9EFFGN1-30" value="" style="endArrow=none;html=1;rounded=0;entryX=1;entryY=0.5;entryDx=0;entryDy=0;fillColor=#f8cecc;strokeColor=#39B85B;" parent="1" target="iU5Yc8XOJH75U9EFFGN1-5" edge="1">
          <mxGeometry width="50" height="50" relative="1" as="geometry">
            <mxPoint x="560" y="1440" as="sourcePoint" />
            <mxPoint x="400" y="1260" as="targetPoint" />
            <Array as="points">
              <mxPoint x="560" y="1200" />
            </Array>
          </mxGeometry>
        </mxCell>
        <mxCell id="iU5Yc8XOJH75U9EFFGN1-31" value="" style="endArrow=none;html=1;rounded=0;entryX=1;entryY=0.5;entryDx=0;entryDy=0;fillColor=#f8cecc;strokeColor=#39B85B;" parent="1" target="iU5Yc8XOJH75U9EFFGN1-4" edge="1">
          <mxGeometry width="50" height="50" relative="1" as="geometry">
            <mxPoint x="560" y="1440" as="sourcePoint" />
            <mxPoint x="400" y="1200" as="targetPoint" />
            <Array as="points">
              <mxPoint x="560" y="1140" />
            </Array>
          </mxGeometry>
        </mxCell>
        <mxCell id="iU5Yc8XOJH75U9EFFGN1-32" value="" style="endArrow=none;html=1;rounded=0;entryX=1;entryY=0.5;entryDx=0;entryDy=0;fillColor=#f8cecc;strokeColor=#39B85B;" parent="1" target="iU5Yc8XOJH75U9EFFGN1-3" edge="1">
          <mxGeometry width="50" height="50" relative="1" as="geometry">
            <mxPoint x="560" y="1440" as="sourcePoint" />
            <mxPoint x="400" y="1140" as="targetPoint" />
            <Array as="points">
              <mxPoint x="560" y="1080" />
            </Array>
          </mxGeometry>
        </mxCell>
        <mxCell id="iU5Yc8XOJH75U9EFFGN1-33" value="" style="endArrow=none;html=1;rounded=0;entryX=1;entryY=0.5;entryDx=0;entryDy=0;fillColor=#f8cecc;strokeColor=#39B85B;" parent="1" target="iU5Yc8XOJH75U9EFFGN1-2" edge="1">
          <mxGeometry width="50" height="50" relative="1" as="geometry">
            <mxPoint x="560" y="1440" as="sourcePoint" />
            <mxPoint x="400" y="1080" as="targetPoint" />
            <Array as="points">
              <mxPoint x="560" y="1020" />
            </Array>
          </mxGeometry>
        </mxCell>
        <mxCell id="iU5Yc8XOJH75U9EFFGN1-34" value="" style="endArrow=none;html=1;rounded=0;fillColor=#f8cecc;strokeColor=#39B85B;" parent="1" edge="1">
          <mxGeometry width="50" height="50" relative="1" as="geometry">
            <mxPoint x="560" y="1440" as="sourcePoint" />
            <mxPoint x="144.66666666666666" y="960" as="targetPoint" />
            <Array as="points">
              <mxPoint x="560" y="960" />
            </Array>
          </mxGeometry>
        </mxCell>
        <mxCell id="iU5Yc8XOJH75U9EFFGN1-37" value="" style="endArrow=none;html=1;rounded=0;exitX=1;exitY=0.5;exitDx=0;exitDy=0;entryX=0;entryY=0.5;entryDx=0;entryDy=0;strokeColor=#2EC0FF;" parent="1" source="iU5Yc8XOJH75U9EFFGN1-8" target="iU5Yc8XOJH75U9EFFGN1-21" edge="1">
          <mxGeometry width="50" height="50" relative="1" as="geometry">
            <mxPoint x="670" y="1360" as="sourcePoint" />
            <mxPoint x="720" y="1310" as="targetPoint" />
            <Array as="points">
              <mxPoint x="600" y="1380" />
              <mxPoint x="600" y="1320" />
            </Array>
          </mxGeometry>
        </mxCell>
        <mxCell id="iU5Yc8XOJH75U9EFFGN1-38" value="" style="endArrow=none;html=1;rounded=0;exitX=1;exitY=0.5;exitDx=0;exitDy=0;entryX=0;entryY=0.5;entryDx=0;entryDy=0;strokeColor=#2EC0FF;" parent="1" source="iU5Yc8XOJH75U9EFFGN1-7" target="iU5Yc8XOJH75U9EFFGN1-21" edge="1">
          <mxGeometry width="50" height="50" relative="1" as="geometry">
            <mxPoint x="590" y="1310" as="sourcePoint" />
            <mxPoint x="640" y="1260" as="targetPoint" />
          </mxGeometry>
        </mxCell>
        <mxCell id="iU5Yc8XOJH75U9EFFGN1-40" value="" style="endArrow=none;html=1;rounded=0;exitX=1;exitY=0.5;exitDx=0;exitDy=0;entryX=0;entryY=0.5;entryDx=0;entryDy=0;strokeColor=#2EC0FF;" parent="1" source="iU5Yc8XOJH75U9EFFGN1-6" target="iU5Yc8XOJH75U9EFFGN1-21" edge="1">
          <mxGeometry width="50" height="50" relative="1" as="geometry">
            <mxPoint x="620" y="1280" as="sourcePoint" />
            <mxPoint x="670" y="1230" as="targetPoint" />
            <Array as="points">
              <mxPoint x="600" y="1260" />
              <mxPoint x="600" y="1320" />
            </Array>
          </mxGeometry>
        </mxCell>
        <mxCell id="iU5Yc8XOJH75U9EFFGN1-41" value="" style="endArrow=none;html=1;rounded=0;exitX=1;exitY=0.5;exitDx=0;exitDy=0;entryX=0;entryY=0.5;entryDx=0;entryDy=0;strokeColor=#2EC0FF;" parent="1" source="iU5Yc8XOJH75U9EFFGN1-5" edge="1">
          <mxGeometry width="50" height="50" relative="1" as="geometry">
            <mxPoint x="400" y="1260" as="sourcePoint" />
            <mxPoint x="720" y="1320" as="targetPoint" />
            <Array as="points">
              <mxPoint x="600" y="1200" />
              <mxPoint x="600" y="1320" />
            </Array>
          </mxGeometry>
        </mxCell>
        <mxCell id="iU5Yc8XOJH75U9EFFGN1-42" value="" style="endArrow=none;html=1;rounded=0;exitX=1;exitY=0.5;exitDx=0;exitDy=0;entryX=0;entryY=0.5;entryDx=0;entryDy=0;strokeColor=#2EC0FF;" parent="1" source="iU5Yc8XOJH75U9EFFGN1-4" edge="1">
          <mxGeometry width="50" height="50" relative="1" as="geometry">
            <mxPoint x="400" y="1200" as="sourcePoint" />
            <mxPoint x="720" y="1320" as="targetPoint" />
            <Array as="points">
              <mxPoint x="600" y="1140" />
              <mxPoint x="600" y="1320" />
            </Array>
          </mxGeometry>
        </mxCell>
        <mxCell id="iU5Yc8XOJH75U9EFFGN1-43" value="" style="endArrow=none;html=1;rounded=0;entryX=0;entryY=0.5;entryDx=0;entryDy=0;exitX=1;exitY=0.5;exitDx=0;exitDy=0;strokeColor=#2EC0FF;" parent="1" source="iU5Yc8XOJH75U9EFFGN1-3" edge="1">
          <mxGeometry width="50" height="50" relative="1" as="geometry">
            <mxPoint x="410" y="1080" as="sourcePoint" />
            <mxPoint x="720" y="1320" as="targetPoint" />
            <Array as="points">
              <mxPoint x="600" y="1080" />
              <mxPoint x="600" y="1320" />
            </Array>
          </mxGeometry>
        </mxCell>
        <mxCell id="iU5Yc8XOJH75U9EFFGN1-44" value="" style="endArrow=none;html=1;rounded=0;entryX=0;entryY=0.5;entryDx=0;entryDy=0;exitX=1;exitY=0.5;exitDx=0;exitDy=0;strokeColor=#2EC0FF;" parent="1" source="iU5Yc8XOJH75U9EFFGN1-2" edge="1">
          <mxGeometry width="50" height="50" relative="1" as="geometry">
            <mxPoint x="400" y="1080" as="sourcePoint" />
            <mxPoint x="720" y="1320" as="targetPoint" />
            <Array as="points">
              <mxPoint x="600" y="1020" />
              <mxPoint x="600" y="1320" />
            </Array>
          </mxGeometry>
        </mxCell>
        <mxCell id="iU5Yc8XOJH75U9EFFGN1-45" value="" style="endArrow=none;html=1;rounded=0;entryX=0;entryY=0.5;entryDx=0;entryDy=0;exitX=1;exitY=0.5;exitDx=0;exitDy=0;strokeColor=#8825ad;" parent="1" source="iU5Yc8XOJH75U9EFFGN1-7" target="iU5Yc8XOJH75U9EFFGN1-20" edge="1">
          <mxGeometry width="50" height="50" relative="1" as="geometry">
            <mxPoint x="590" y="1270" as="sourcePoint" />
            <mxPoint x="640" y="1220" as="targetPoint" />
            <Array as="points">
              <mxPoint x="520" y="1320" />
              <mxPoint x="520" y="1200" />
            </Array>
          </mxGeometry>
        </mxCell>
        <mxCell id="iU5Yc8XOJH75U9EFFGN1-46" value="" style="endArrow=none;html=1;rounded=0;entryX=0;entryY=0.5;entryDx=0;entryDy=0;exitX=1;exitY=0.5;exitDx=0;exitDy=0;strokeColor=#8825ad;" parent="1" source="iU5Yc8XOJH75U9EFFGN1-5" target="iU5Yc8XOJH75U9EFFGN1-20" edge="1">
          <mxGeometry width="50" height="50" relative="1" as="geometry">
            <mxPoint x="620" y="1280" as="sourcePoint" />
            <mxPoint x="670" y="1230" as="targetPoint" />
          </mxGeometry>
        </mxCell>
        <mxCell id="iU5Yc8XOJH75U9EFFGN1-47" value="" style="endArrow=none;html=1;rounded=0;entryX=0;entryY=0.5;entryDx=0;entryDy=0;exitX=1;exitY=0.5;exitDx=0;exitDy=0;strokeColor=#8825ad;" parent="1" source="iU5Yc8XOJH75U9EFFGN1-6" target="iU5Yc8XOJH75U9EFFGN1-20" edge="1">
          <mxGeometry width="50" height="50" relative="1" as="geometry">
            <mxPoint x="480" y="1380" as="sourcePoint" />
            <mxPoint x="530" y="1330" as="targetPoint" />
            <Array as="points">
              <mxPoint x="520" y="1260" />
              <mxPoint x="520" y="1200" />
            </Array>
          </mxGeometry>
        </mxCell>
        <mxCell id="iU5Yc8XOJH75U9EFFGN1-48" value="" style="endArrow=none;html=1;rounded=0;exitX=1;exitY=0.5;exitDx=0;exitDy=0;entryX=0;entryY=0.5;entryDx=0;entryDy=0;strokeColor=#8825ad;" parent="1" source="iU5Yc8XOJH75U9EFFGN1-4" target="iU5Yc8XOJH75U9EFFGN1-20" edge="1">
          <mxGeometry width="50" height="50" relative="1" as="geometry">
            <mxPoint x="400" y="1140" as="sourcePoint" />
            <mxPoint x="570" y="1110" as="targetPoint" />
            <Array as="points">
              <mxPoint x="520" y="1140" />
              <mxPoint x="520" y="1200" />
            </Array>
          </mxGeometry>
        </mxCell>
        <mxCell id="iU5Yc8XOJH75U9EFFGN1-49" value="" style="endArrow=none;html=1;rounded=0;entryX=0;entryY=0.5;entryDx=0;entryDy=0;exitX=1;exitY=0.5;exitDx=0;exitDy=0;strokeColor=#8825ad;" parent="1" source="iU5Yc8XOJH75U9EFFGN1-3" target="iU5Yc8XOJH75U9EFFGN1-20" edge="1">
          <mxGeometry width="50" height="50" relative="1" as="geometry">
            <mxPoint x="510" y="1240" as="sourcePoint" />
            <mxPoint x="560" y="1190" as="targetPoint" />
            <Array as="points">
              <mxPoint x="520" y="1080" />
              <mxPoint x="520" y="1200" />
            </Array>
          </mxGeometry>
        </mxCell>
        <mxCell id="iU5Yc8XOJH75U9EFFGN1-50" value="" style="endArrow=none;html=1;rounded=0;entryX=0;entryY=0.5;entryDx=0;entryDy=0;exitX=1;exitY=0.5;exitDx=0;exitDy=0;fillColor=#f8cecc;strokeColor=#0000FF;" parent="1" source="iU5Yc8XOJH75U9EFFGN1-6" target="iU5Yc8XOJH75U9EFFGN1-19" edge="1">
          <mxGeometry width="50" height="50" relative="1" as="geometry">
            <mxPoint x="660" y="1090" as="sourcePoint" />
            <mxPoint x="710" y="1040" as="targetPoint" />
            <Array as="points">
              <mxPoint x="440" y="1260" />
              <mxPoint x="480" y="1260" />
              <mxPoint x="480" y="1020" />
            </Array>
          </mxGeometry>
        </mxCell>
        <mxCell id="iU5Yc8XOJH75U9EFFGN1-51" value="" style="endArrow=none;html=1;rounded=0;entryX=0;entryY=0.5;entryDx=0;entryDy=0;fillColor=#f8cecc;strokeColor=#0000FF;exitX=1;exitY=0.5;exitDx=0;exitDy=0;" parent="1" source="iU5Yc8XOJH75U9EFFGN1-5" target="iU5Yc8XOJH75U9EFFGN1-19" edge="1">
          <mxGeometry width="50" height="50" relative="1" as="geometry">
            <mxPoint x="470" y="1110" as="sourcePoint" />
            <mxPoint x="580" y="1090" as="targetPoint" />
            <Array as="points">
              <mxPoint x="480" y="1200" />
              <mxPoint x="480" y="1020" />
            </Array>
          </mxGeometry>
        </mxCell>
        <mxCell id="iU5Yc8XOJH75U9EFFGN1-52" value="" style="endArrow=none;html=1;rounded=0;entryX=0;entryY=0.5;entryDx=0;entryDy=0;exitX=1;exitY=0.5;exitDx=0;exitDy=0;fillColor=#f8cecc;strokeColor=#0000FF;" parent="1" source="iU5Yc8XOJH75U9EFFGN1-4" target="iU5Yc8XOJH75U9EFFGN1-19" edge="1">
          <mxGeometry width="50" height="50" relative="1" as="geometry">
            <mxPoint x="530" y="1140" as="sourcePoint" />
            <mxPoint x="580" y="1090" as="targetPoint" />
            <Array as="points">
              <mxPoint x="480" y="1140" />
              <mxPoint x="480" y="1020" />
            </Array>
          </mxGeometry>
        </mxCell>
      </root>
    </mxGraphModel>
  </diagram>
</mxfile>
